<?xml version="1.0" encoding="utf-8"?>
<!-- Generator: Adobe Illustrator 17.1.0, SVG Export Plug-In . SVG Version: 6.00 Build 0)  -->
<!DOCTYPE svg PUBLIC "-//W3C//DTD SVG 1.1//EN" "http://www.w3.org/Graphics/SVG/1.1/DTD/svg11.dtd">
<svg version="1.1" id="Layer_1" xmlns="http://www.w3.org/2000/svg" xmlns:xlink="http://www.w3.org/1999/xlink" x="0px" y="0px"
	 viewBox="5 5 30 30" enable-background="new 5 5 30 30" xml:space="preserve">
<path fill="#FFFFFF" d="M20,5C11.7,5,5,11.7,5,20s6.7,15,15,15s15-6.7,15-15S28.3,5,20,5z M20,33.4c-7.4,0-13.4-6-13.4-13.4
	S12.6,6.6,20,6.6s13.4,6,13.4,13.4S27.4,33.4,20,33.4z"/>
<path fill="#FFFFFF" d="M27.7,14l-1-1.1l-6.5,6.5l-6.5-6.5L12.6,14l6.5,6.4l-6.5,6.5l1.1,1.1l6.5-6.5l6.5,6.5l1-1.1l-6.5-6.5
	L27.7,14z"/>
</svg>
