<?xml version="1.0" encoding="utf-8"?>
<!-- Generator: Adobe Illustrator 17.1.0, SVG Export Plug-In . SVG Version: 6.00 Build 0)  -->
<!DOCTYPE svg PUBLIC "-//W3C//DTD SVG 1.1//EN" "http://www.w3.org/Graphics/SVG/1.1/DTD/svg11.dtd">
<svg version="1.1" id="Layer_1" xmlns="http://www.w3.org/2000/svg" xmlns:xlink="http://www.w3.org/1999/xlink" x="0px" y="0px"
	 viewBox="0 0 56.69 56.69" enable-background="new 0 0 56.69 56.69" xml:space="preserve">
<path id="CIRCLE__x2F__DELETE_2_" fill-rule="evenodd" clip-rule="evenodd" fill="#FFFFFF" d="M28.25,55.5
	c-14.981,0-27.125-12.144-27.125-27.125C1.125,13.394,13.269,1.25,28.25,1.25s27.125,12.144,27.125,27.125
	C55.375,43.356,43.231,55.5,28.25,55.5z M28.25,6.336c-12.172,0-22.039,9.867-22.039,22.039c0,12.172,9.867,22.039,22.039,22.039
	s22.039-9.867,22.039-22.039C50.289,16.203,40.422,6.336,28.25,6.336z M37.574,40.242c-0.702,0-1.338-0.285-1.798-0.745l0,0
	l-7.526-7.526l-7.526,7.526l0,0c-0.46,0.46-1.096,0.745-1.798,0.745c-1.404,0-2.543-1.138-2.543-2.543
	c0-0.702,0.285-1.338,0.745-1.798l0,0l7.526-7.526l-7.526-7.526l0,0c-0.46-0.46-0.745-1.096-0.745-1.798
	c0-1.404,1.139-2.543,2.543-2.543c0.702,0,1.338,0.285,1.798,0.745l0,0l7.526,7.526l7.526-7.526l0,0
	c0.46-0.46,1.096-0.745,1.798-0.745c1.404,0,2.543,1.139,2.543,2.543c0,0.702-0.285,1.338-0.745,1.798l0,0l-7.526,7.526l7.526,7.526
	l0,0c0.46,0.46,0.745,1.096,0.745,1.798C40.117,39.104,38.979,40.242,37.574,40.242z"/>
</svg>
