<?xml version="1.0" encoding="utf-8"?>
<!-- Generator: Adobe Illustrator 17.1.0, SVG Export Plug-In . SVG Version: 6.00 Build 0)  -->
<!DOCTYPE svg PUBLIC "-//W3C//DTD SVG 1.1//EN" "http://www.w3.org/Graphics/SVG/1.1/DTD/svg11.dtd">
<svg version="1.1" id="Layer_1" xmlns="http://www.w3.org/2000/svg" xmlns:xlink="http://www.w3.org/1999/xlink" x="0px" y="0px"
	 viewBox="0 0 56.69 56.69" enable-background="new 0 0 56.69 56.69" xml:space="preserve">
<path fill="#FFFFFF" d="M51.709,44.258l-8.83-8.831l-1.6-1.599c-0.064-0.064-0.139-0.108-0.205-0.169
	c1.719-2.966,2.719-6.401,2.719-10.076c0-11.127-9.02-20.146-20.147-20.146C12.519,3.437,3.5,12.456,3.5,23.583
	c0,11.127,9.019,20.146,20.146,20.146c3.611,0,6.993-0.963,9.924-2.627c0.068,0.078,0.121,0.165,0.195,0.239l1.6,1.599l8.83,8.831
	c1.979,1.977,5.184,1.977,7.16,0l0.354-0.354C53.686,49.44,53.686,46.235,51.709,44.258z M23.648,39.043
	c-8.539,0-15.463-6.919-15.463-15.46c0-8.54,6.924-15.461,15.463-15.461c8.538,0,15.458,6.921,15.458,15.461
	C39.105,32.124,32.186,39.043,23.648,39.043z"/>
</svg>
