<?xml version="1.0" encoding="utf-8"?>
<!-- Generator: Adobe Illustrator 17.1.0, SVG Export Plug-In . SVG Version: 6.00 Build 0)  -->
<!DOCTYPE svg PUBLIC "-//W3C//DTD SVG 1.1//EN" "http://www.w3.org/Graphics/SVG/1.1/DTD/svg11.dtd">
<svg version="1.1" id="Layer_1" xmlns="http://www.w3.org/2000/svg" xmlns:xlink="http://www.w3.org/1999/xlink" x="0px" y="0px"
	 viewBox="0 0 40 40" enable-background="new 0 0 40 40" xml:space="preserve">
<g id="UK_MAP">
	<g>
		<path fill="#FFFFFF" d="M12.6,18.2c-0.9-0.9-2.1,0.5-3.1,0.5C9.3,19.5,9,20,8.7,20.2c-0.4,0.3-1.1,1.3-0.6,1.5
			c0.6,0.1,1.5,1,1.6,0.3c0.1-0.7,0.5-1.6,1.5-0.4c0.2,0.3,0.5,0.5,0.8,0.8c0.2-0.5,1.3-0.6,1.9-1.2C14.7,20.3,13.6,19.2,12.6,18.2z
			 M32.9,27.4c0.1-1.1-2.4-1.9-2.6-1.3C30,26.7,29.4,26.7,29,26c-0.4-0.7,0.4-1.3,0-1.4c-0.4-0.1-0.9-1-0.8-1.4
			c0.1-0.4-0.6-2.7-1.9-3c-1.3-0.3-1.4-2.1-1.7-3c-0.2-1-1-0.4-1.7-1.3c-0.6-0.8-1.7-0.4-2.3-0.4c-0.6,0,0-1,0.9-1.6
			c0.9-0.6,1.9-3.7,1.9-4.4s-3.9-0.6-4.6-0.2c-0.7,0.4-1.5-0.6-0.9-0.8c0.6-0.3,2-1.6,1.9-2.1c-0.1-0.5,0.9-1,0.4-1.5
			c-0.6-0.5-0.6,0.6-1.1,1c-0.5,0.4-1.6,0.3-2.7,0c-1.2-0.2-1.6,1.4-1.6,2.1c0,0.7-1.3,1.1-1.1,1.7c0.2,0.6-0.3,1-0.6,0.7
			c-0.4-0.3-0.8-1.2-1.5-0.6c-0.7,0.6,0.9,1.4,1.8,1.5c1,0.1-0.7,0.8-0.9,1.9c-0.2,1,1.3,0.6,1.3,1.3c0.1,0.7-2.1,0.9-2.1,1.6
			c0,0.7,1.2-0.3,1.8-0.6c0.6-0.3-0.3,1.7,1,1.5s1-2,1.4-2c0.5,0.1-0.2,1,0.2,1.7c0.4,0.8-1,2-0.9,2.5c0.1,0.6,2.7,0.6,3.6-0.3
			c0.9-0.9,1.3,0.1,0.7,0.7c-0.6,0.7-0.3,1.3,0.4,1.6c0.7,0.3,1,0.3,0.7,0.9c-0.3,0.6,0,1.7-0.2,2.3c-0.2,0.6-2.5,0.5-2.6,0.1
			c-0.1-0.4-1-0.1-0.8,0.4c0.3,0.5-0.8,1.1-0.7,1.6c0.1,0.5,1.4,0.4,1.5,1c0,0.6-1,1.3-2.4,1.7c-1.4,0.4,0.3,1.5,1,1
			c0.7-0.5,0.5,0.3,1.5,0.3c1,0,1.6,0.8,2.6,0.4c1.1-0.4,1,0,0.2,0.6c-0.8,0.6-2,0-2.8,0.4c-0.7,0.4-3.8,3.2-3.2,3.9
			c0.3,0.4,0.8-0.6,1.9-1c1.1-0.4,1.3,0.3,1.9,0.4c0.6,0.1,0.6-1.2,1.1-1.1c0.5,0.1,0.9-0.4,1.8-0.3c0.9,0.1,1.5-0.2,2-0.6
			s1.6,0.7,2,0.5c0.4-0.3,2-0.6,2.8-0.5c0.8,0,2.9-0.9,3.5-1.4c0.6-0.5-0.3-0.6-1.1-0.5c-0.7,0.1-0.6-0.7,0.2-1.5
			C31.6,29.1,32.8,28.6,32.9,27.4z M10.5,8.8c1,0,2.2-1.7,1.7-2.2C11.7,6.1,9.8,8.8,10.5,8.8z"/>
	</g>
	<g>
		<path fill="none" stroke="#FFFFFF" stroke-width="0.1263" d="M12.6,18.2c-0.9-0.9-2.1,0.5-3.1,0.5C9.3,19.5,9,20,8.7,20.2
			c-0.4,0.3-1.1,1.3-0.6,1.5c0.6,0.1,1.5,1,1.6,0.3c0.1-0.7,0.5-1.6,1.5-0.4c0.2,0.3,0.5,0.5,0.8,0.8c0.2-0.5,1.3-0.6,1.9-1.2
			C14.7,20.3,13.6,19.2,12.6,18.2z M32.9,27.4c0.1-1.1-2.4-1.9-2.6-1.3C30,26.7,29.4,26.7,29,26c-0.4-0.7,0.4-1.3,0-1.4
			c-0.4-0.1-0.9-1-0.8-1.4c0.1-0.4-0.6-2.7-1.9-3c-1.3-0.3-1.4-2.1-1.7-3c-0.2-1-1-0.4-1.7-1.3c-0.6-0.8-1.7-0.4-2.3-0.4
			c-0.6,0,0-1,0.9-1.6c0.9-0.6,1.9-3.7,1.9-4.4s-3.9-0.6-4.6-0.2c-0.7,0.4-1.5-0.6-0.9-0.8c0.6-0.3,2-1.6,1.9-2.1
			c-0.1-0.5,0.9-1,0.4-1.5c-0.6-0.5-0.6,0.6-1.1,1c-0.5,0.4-1.6,0.3-2.7,0c-1.2-0.2-1.6,1.4-1.6,2.1c0,0.7-1.3,1.1-1.1,1.7
			c0.2,0.6-0.3,1-0.6,0.7c-0.4-0.3-0.8-1.2-1.5-0.6c-0.7,0.6,0.9,1.4,1.8,1.5c1,0.1-0.7,0.8-0.9,1.9c-0.2,1,1.3,0.6,1.3,1.3
			c0.1,0.7-2.1,0.9-2.1,1.6c0,0.7,1.2-0.3,1.8-0.6c0.6-0.3-0.3,1.7,1,1.5s1-2,1.4-2c0.5,0.1-0.2,1,0.2,1.7c0.4,0.8-1,2-0.9,2.5
			c0.1,0.6,2.7,0.6,3.6-0.3c0.9-0.9,1.3,0.1,0.7,0.7c-0.6,0.7-0.3,1.3,0.4,1.6c0.7,0.3,1,0.3,0.7,0.9c-0.3,0.6,0,1.7-0.2,2.3
			c-0.2,0.6-2.5,0.5-2.6,0.1c-0.1-0.4-1-0.1-0.8,0.4c0.3,0.5-0.8,1.1-0.7,1.6c0.1,0.5,1.4,0.4,1.5,1c0,0.6-1,1.3-2.4,1.7
			c-1.4,0.4,0.3,1.5,1,1c0.7-0.5,0.5,0.3,1.5,0.3c1,0,1.6,0.8,2.6,0.4c1.1-0.4,1,0,0.2,0.6c-0.8,0.6-2,0-2.8,0.4
			c-0.7,0.4-3.8,3.2-3.2,3.9c0.3,0.4,0.8-0.6,1.9-1c1.1-0.4,1.3,0.3,1.9,0.4c0.6,0.1,0.6-1.2,1.1-1.1c0.5,0.1,0.9-0.4,1.8-0.3
			c0.9,0.1,1.5-0.2,2-0.6s1.6,0.7,2,0.5c0.4-0.3,2-0.6,2.8-0.5c0.8,0,2.9-0.9,3.5-1.4c0.6-0.5-0.3-0.6-1.1-0.5
			c-0.7,0.1-0.6-0.7,0.2-1.5C31.6,29.1,32.8,28.6,32.9,27.4z M10.5,8.8c1,0,2.2-1.7,1.7-2.2C11.7,6.1,9.8,8.8,10.5,8.8z"/>
	</g>
</g>
</svg>
