<?xml version="1.0" encoding="utf-8"?>
<!-- Generator: Adobe Illustrator 17.1.0, SVG Export Plug-In . SVG Version: 6.00 Build 0)  -->
<!DOCTYPE svg PUBLIC "-//W3C//DTD SVG 1.1//EN" "http://www.w3.org/Graphics/SVG/1.1/DTD/svg11.dtd">
<svg version="1.1" id="Layer_1" xmlns="http://www.w3.org/2000/svg" xmlns:xlink="http://www.w3.org/1999/xlink" x="0px" y="0px"
	 viewBox="0 0 40 40" enable-background="new 0 0 40 40" xml:space="preserve">
<path id="REFRESH" fill-rule="evenodd" clip-rule="evenodd" fill="#FFFFFF" d="M33.6,15.8h-6.1c-0.8,0-1.4-0.6-1.4-1.4
	c0-0.8,0.6-1.4,1.4-1.4h2.4c-2.2-3.1-5.8-5.2-9.9-5.2C13.3,7.8,7.8,13.3,7.8,20c0,6.7,5.5,12.2,12.2,12.2c6.7,0,12.2-5.5,12.2-12.2
	c0-0.8,0.6-1.4,1.4-1.4c0.8,0,1.4,0.6,1.4,1.4c0,8.3-6.7,15-15,15c-8.3,0-15-6.7-15-15S11.7,5,20,5c5,0,9.5,2.5,12.2,6.3V8.8
	c0-0.8,0.6-1.4,1.4-1.4C34.4,7.3,35,8,35,8.8v5.6C35,15.2,34.4,15.8,33.6,15.8z"/>
</svg>
