<?xml version="1.0" encoding="utf-8"?>
<!-- Generator: Adobe Illustrator 17.1.0, SVG Export Plug-In . SVG Version: 6.00 Build 0)  -->
<!DOCTYPE svg PUBLIC "-//W3C//DTD SVG 1.1//EN" "http://www.w3.org/Graphics/SVG/1.1/DTD/svg11.dtd">
<svg version="1.1" id="Layer_1" xmlns="http://www.w3.org/2000/svg" xmlns:xlink="http://www.w3.org/1999/xlink" x="0px" y="0px"
	 viewBox="0 0 40 40" enable-background="new 0 0 40 40" xml:space="preserve">
<path id="ZOOM_IN_2_" fill-rule="evenodd" clip-rule="evenodd" fill="#FFFFFF" d="M35,20v13.6c0,0.8-0.6,1.4-1.4,1.4H20c0,0,0,0,0,0
	c-8.3,0-15-6.7-15-15S11.7,5,20,5C28.3,5,35,11.7,35,20L35,20z M20,7.8C13.3,7.8,7.8,13.3,7.8,20S13.3,32.2,20,32.2v0h0
	c6.7,0,12.2-5.5,12.2-12.2v0l0,0C32.2,13.3,26.7,7.8,20,7.8z M26.1,21.4h-4.7v4.7c0,0.8-0.6,1.4-1.4,1.4c-0.8,0-1.4-0.6-1.4-1.4
	v-4.7h-4.7c-0.8,0-1.4-0.6-1.4-1.4c0-0.8,0.6-1.4,1.4-1.4h4.7v-4.7c0-0.8,0.6-1.4,1.4-1.4c0.8,0,1.4,0.6,1.4,1.4v4.7h4.7
	c0.8,0,1.4,0.6,1.4,1.4C27.5,20.8,26.9,21.4,26.1,21.4z"/>
</svg>
